<svg width="377" height="355" viewBox="0 0 377 355" fill="none" xmlns="http://www.w3.org/2000/svg">
<g clip-path="url(#clip0_21_437)">
<path d="M273.704 201.381V299.171L290.107 325.829L291.356 327.856H356.079L357.387 201.381H273.704Z" fill="#E6E6E6"/>
<path opacity="0.1" d="M273.704 201.381V299.171L290.108 325.829L291.114 201.381H273.704Z" fill="black"/>
<path d="M117.452 198.773V296.563L101.049 323.221L99.8003 325.248H35.0768L33.769 198.773H117.452Z" fill="#E6E6E6"/>
<path opacity="0.1" d="M117.452 198.773V296.563L101.049 323.221L100.042 198.773H117.452Z" fill="black"/>
<path d="M377 196.817V202.684H25.27V194.209L57.9586 177.259H348.234L377 196.817Z" fill="#E6E6E6"/>
<path opacity="0.1" d="M377 196.817V202.684H25.27V194.209L377 196.817Z" fill="black"/>
<path d="M75.6105 226.154H59.9195L53.3818 221.591H82.8018L75.6105 226.154Z" fill="#3F3D56"/>
<path d="M75.6105 245.06H59.9195L53.3818 240.497H82.8018L75.6105 245.06Z" fill="#3F3D56"/>
<path d="M75.6105 271.79H59.9195L53.3818 267.226H82.8018L75.6105 271.79Z" fill="#3F3D56"/>
<path d="M75.6105 298.519H59.9195L53.3818 293.956H82.8018L75.6105 298.519Z" fill="#3F3D56"/>
<path d="M315.545 228.762H331.236L337.774 224.198H308.354L315.545 228.762Z" fill="#3F3D56"/>
<path d="M315.545 247.668H331.236L337.774 243.104H308.354L315.545 247.668Z" fill="#3F3D56"/>
<path d="M315.545 274.397H331.236L337.774 269.834H308.354L315.545 274.397Z" fill="#3F3D56"/>
<path d="M315.545 301.126H331.236L337.774 296.563H308.354L315.545 301.126Z" fill="#3F3D56"/>
<path d="M326.23 64.1743H194.137C193.481 64.1742 192.831 64.303 192.225 64.5533C191.619 64.8037 191.068 65.1706 190.605 65.6332C190.141 66.0958 189.773 66.645 189.522 67.2494C189.271 67.8538 189.142 68.5017 189.142 69.1559V157.887C189.142 158.541 189.271 159.189 189.522 159.793C189.773 160.398 190.141 160.947 190.605 161.41C191.068 161.872 191.619 162.239 192.225 162.489C192.831 162.74 193.481 162.869 194.137 162.868H244.281L242.402 174.829C242.402 174.829 231.666 180.516 239.215 180.684C246.764 180.851 282.327 180.684 282.327 180.684C282.327 180.684 289.204 180.684 278.301 174.662L276.534 162.868H326.23C326.886 162.869 327.536 162.74 328.142 162.489C328.748 162.239 329.299 161.872 329.763 161.41C330.227 160.947 330.595 160.398 330.846 159.793C331.097 159.189 331.226 158.541 331.226 157.887V69.1559C331.226 68.5017 331.097 67.8538 330.846 67.2494C330.595 66.645 330.227 66.0958 329.763 65.6332C329.299 65.1706 328.748 64.8037 328.142 64.5533C327.536 64.303 326.886 64.1742 326.23 64.1743Z" fill="#3F3D56"/>
<path d="M326.445 69.4434H193.922V143.38H326.445V69.4434Z" fill="#F2F2F2"/>
<path d="M260.184 67.9379C260.647 67.9379 261.023 67.5635 261.023 67.1015C261.023 66.6396 260.647 66.2651 260.184 66.2651C259.721 66.2651 259.345 66.6396 259.345 67.1015C259.345 67.5635 259.721 67.9379 260.184 67.9379Z" fill="#F2F2F2"/>
<path d="M260.184 159.272C261.944 159.272 263.371 157.849 263.371 156.094C263.371 154.338 261.944 152.915 260.184 152.915C258.424 152.915 256.997 154.338 256.997 156.094C256.997 157.849 258.424 159.272 260.184 159.272Z" fill="#F2F2F2"/>
<path d="M255.217 189.716V191.39H164.968V190.051L165.092 189.716L167.316 183.695H253.372L255.217 189.716Z" fill="#3F3D56"/>
<path d="M289.948 188.079C289.783 188.78 289.163 189.519 287.76 190.218C282.728 192.728 272.495 189.549 272.495 189.549C272.495 189.549 264.611 188.211 264.611 184.698C264.832 184.547 265.063 184.41 265.302 184.288C267.418 183.172 274.433 180.418 286.872 184.405C287.788 184.692 288.607 185.227 289.236 185.95C289.515 186.224 289.725 186.559 289.849 186.929C289.973 187.299 290.006 187.693 289.948 188.079Z" fill="#3F3D56"/>
<path opacity="0.1" d="M289.948 188.079C283.788 190.433 278.298 190.608 272.663 186.706C270.532 185.135 267.952 184.287 265.302 184.288C267.418 183.172 274.433 180.418 286.872 184.405C287.789 184.692 288.607 185.227 289.237 185.95C289.516 186.224 289.725 186.559 289.849 186.929C289.973 187.299 290.007 187.693 289.948 188.079Z" fill="black"/>
<path d="M282.225 186.705C283.429 186.705 284.405 186.406 284.405 186.036C284.405 185.667 283.429 185.367 282.225 185.367C281.02 185.367 280.044 185.667 280.044 186.036C280.044 186.406 281.02 186.705 282.225 186.705Z" fill="#F2F2F2"/>
<path opacity="0.1" d="M255.217 189.717V191.39H164.968V190.051L165.092 189.717H255.217Z" fill="black"/>
<path d="M50.1801 0.50003C49.2642 0.42504 48.347 0.62935 47.5502 1.08589C46.7677 1.6202 46.2746 2.55627 45.7712 3.42734C43.8466 6.79755 41.2411 9.73244 38.1196 12.0461C35.8461 13.707 32.9556 15.7779 33.3445 18.8402C33.5497 19.8514 33.9244 20.821 34.4528 21.7081C36.5501 25.9301 42.2736 29.1928 41.7106 34.0105C43.7945 30.5317 41.0072 28.8116 43.091 25.3329C44.0834 23.6763 45.8073 21.8062 47.3056 22.8466C47.8073 23.1949 48.1367 23.8197 48.659 24.1254C49.9054 24.8547 51.2314 23.4604 52.3347 22.4728C56.1391 19.0671 61.5494 19.9593 66.2836 21.0205C68.5186 21.5214 70.9735 22.1786 72.2948 24.3088C74.0319 27.1095 70.6443 30.1342 69.7884 33.3007C69.7186 33.5705 69.7153 33.8531 69.7788 34.1245C69.8424 34.3959 69.9709 34.6478 70.1534 34.8589C70.3359 35.0699 70.5669 35.2337 70.8267 35.3363C71.0865 35.4389 71.3674 35.4772 71.6453 35.4479C73.0659 35.3082 74.7486 35.1937 74.8327 34.5721C76.62 34.6355 78.8099 34.4337 79.5756 32.5779C79.8097 31.8436 79.9334 31.0789 79.9428 30.3085C80.2238 27.1912 81.5506 24.3473 82.4295 21.3803C83.3085 18.4134 83.6907 14.9363 82.2074 12.3058C81.678 11.4306 81.0233 10.6371 80.264 9.95055C71.8466 1.82756 60.7795 0.487973 50.1801 0.50003Z" fill="#2F2E41"/>
<path d="M43.5412 40.0956C43.5412 40.0956 45.3719 55.3081 38.6595 56.5251C31.9471 57.7421 44.7616 78.4311 44.7616 78.4311L75.2725 82.0821L67.9499 57.7421C67.9499 57.7421 63.0681 55.9166 66.1192 43.7466C69.1703 31.5766 43.5412 40.0956 43.5412 40.0956Z" fill="#FFB8B8"/>
<path d="M24.9297 301.446L27.3708 334.914H40.1849L36.524 301.446H24.9297Z" fill="#FFB8B8"/>
<path d="M118.903 238.162L120.733 266.153L134.769 260.068L129.276 236.946L118.903 238.162Z" fill="#FFB8B8"/>
<path d="M15.7764 173.661C15.7764 173.661 16.3866 208.954 20.0479 220.516C23.7092 232.077 23.099 232.686 22.4888 234.511C21.8786 236.337 21.2683 235.12 21.2683 238.162C21.2683 241.205 20.0479 289.276 21.2683 293.536C22.4888 297.795 17.607 305.097 21.2683 305.706C24.9296 306.314 42.0157 305.706 42.6259 302.055C43.2361 298.404 37.7442 297.187 40.185 294.753C42.6259 292.319 46.2872 242.422 46.2872 242.422L54.8302 207.737L70.6958 189.482H104.258L114.631 229.643C114.631 229.643 110.36 241.205 113.411 241.205C116.462 241.205 134.769 244.856 134.769 231.469C134.769 218.082 128.666 178.529 127.446 177.312C126.226 176.095 128.056 171.836 126.225 170.01C124.395 168.185 103.037 155.406 95.1045 152.972C87.1717 150.538 76.0433 147.641 76.0433 147.641L15.7764 173.661Z" fill="#2F2E41"/>
<path d="M134.768 255.2C134.768 255.2 125.615 252.158 121.344 261.285C117.072 270.413 118.903 272.847 118.903 272.847C118.903 272.847 132.938 277.715 135.379 275.281C136.44 274.222 139.813 273.854 143.284 273.776C148.57 273.658 149.977 266.2 144.984 264.463C144.835 264.411 144.684 264.366 144.532 264.328C139.65 263.111 134.768 255.2 134.768 255.2Z" fill="#2F2E41"/>
<path d="M57.2708 50.1358C67.3812 50.1358 75.5773 41.9627 75.5773 31.8807C75.5773 21.7988 67.3812 13.6257 57.2708 13.6257C47.1604 13.6257 38.9644 21.7988 38.9644 31.8807C38.9644 41.9627 47.1604 50.1358 57.2708 50.1358Z" fill="#FFB8B8"/>
<path d="M33.4727 64.1313C33.4727 64.1313 63.3733 70.2163 70.6959 60.4803C78.0185 50.7443 81.0696 87.8628 81.0696 87.8628L84.7309 126.807L79.2389 148.104C79.2389 148.104 50.5587 171.227 41.4055 173.053C32.2523 174.878 18.2173 176.095 18.2173 176.095C18.2173 176.095 22.4888 108.552 22.4888 107.335C22.4888 106.118 33.4727 64.1313 33.4727 64.1313Z" fill="#6C63FF"/>
<path d="M42.5662 52.719C42.5662 52.719 35.9136 48.9187 34.0829 52.5697C32.2523 56.2207 15.1662 65.3482 13.3356 65.3482C11.5049 65.3482 16.9969 115.854 14.556 121.939C12.1151 128.024 0.521037 172.444 7.23342 176.095C13.9458 179.746 9.06406 172.444 15.7764 181.572C22.4888 190.699 55.4405 190.699 57.2711 187.048C59.1018 183.397 42.626 156.015 45.677 130.458C48.7281 104.901 53.6098 69.6077 49.3383 64.7397C45.0668 59.8717 42.5662 52.719 42.5662 52.719Z" fill="#2F2E41"/>
<path d="M64.5938 56.8292L65.4437 53.9124C65.4437 53.9124 90.833 62.3057 92.0535 67.7822C93.2739 73.2587 92.6637 111.594 88.3922 114.637C84.1207 117.679 78.0185 122.547 82.29 129.849C86.5615 137.151 91.4432 145.062 95.1046 145.67C98.7659 146.279 105.478 150.538 103.648 154.798C101.817 159.057 79.8492 151.147 79.8492 151.147C79.8492 151.147 65.204 140.194 65.8142 123.156C66.4244 106.118 64.5938 56.8292 64.5938 56.8292Z" fill="#2F2E41"/>
<path d="M85.9509 128.632L71.3057 156.015C71.3057 156.015 49.9482 177.921 62.1525 180.355C74.3569 182.789 81.0692 160.274 81.0692 160.274L96.9348 137.76L85.9509 128.632Z" fill="#FFB8B8"/>
<path d="M51.0716 5.27647C50.3337 5.22194 49.5946 5.3649 48.9307 5.69055C48.3304 6.12774 47.8356 6.69315 47.4826 7.34547C45.855 9.78688 43.7333 11.8619 41.2539 13.4372C39.4031 14.6111 37.0501 16.0748 37.3668 18.2391C37.5386 18.9648 37.8446 19.6522 38.2689 20.2662C39.9821 23.2804 40.6642 26.7691 40.2118 30.2044L45.3008 22.8282C46.1086 21.6573 47.512 20.3355 48.7316 21.0709C49.14 21.3171 49.4082 21.7587 49.8334 21.9747C50.848 22.4902 51.9274 21.5047 52.8255 20.8067C55.9225 18.3996 60.3267 19.0302 64.1805 19.7802C65.9999 20.1342 67.9984 20.5988 69.0739 22.1043C70.8612 24.6063 68.9949 28.2215 70.038 31.1118C70.33 30.908 70.578 30.6477 70.7673 30.3465C70.9565 30.0453 71.0832 29.7093 71.1399 29.3583C72.5948 29.4032 74.3774 29.2606 75.0008 27.9489C75.1904 27.4348 75.2915 26.8925 75.2997 26.3449C75.5284 24.1416 76.6085 22.1315 77.324 20.0345C78.0395 17.9375 78.3506 15.4799 77.1432 13.6207C76.7014 12.9907 76.1683 12.4297 75.5612 11.956C68.709 6.21475 59.6999 5.26794 51.0716 5.27647Z" fill="#2F2E41"/>
<path d="M85.9511 65.3484L91.6365 66.8533C91.6365 66.8533 104.868 100.641 101.817 123.764C98.7656 146.887 96.935 142.019 96.935 142.019C96.935 142.019 92.0532 131.066 81.0693 133.5L85.9511 65.3484Z" fill="#2F2E41"/>
<path d="M25.7748 330.491C24.3033 332.485 24.5984 335.336 23.2949 337.443C22.165 339.269 20.0356 340.227 18.6224 341.845C18.1714 342.383 17.7694 342.96 17.4211 343.568C16.1101 345.758 15.0445 348.565 16.3357 350.766C17.3743 352.537 19.5575 353.229 21.5598 353.701C24.0905 354.297 26.72 354.775 29.2799 354.319C31.8399 353.863 34.3417 352.3 35.2545 349.872C35.4339 349.261 35.6471 348.661 35.8933 348.074C37.2808 345.35 41.6329 345.321 43.053 342.614C44.0467 340.719 43.1332 338.429 42.2201 336.495L39.4312 330.586C38.5057 328.626 34.7538 329.753 32.7978 329.283C30.2469 328.671 27.61 327.996 25.7748 330.491Z" fill="#2F2E41"/>
<path d="M5.40283 140.802L31.0319 180.355C31.0319 180.355 46.8975 200.435 51.7793 191.308C56.661 182.18 34.6932 166.968 34.6932 166.968L18.2174 136.543L5.40283 140.802Z" fill="#FFB8B8"/>
<path d="M18.2171 66.5654L13.3354 65.3484C13.3354 65.3484 3.57195 68.3909 1.13109 81.1694C-1.30978 93.9479 0.520866 145.062 3.57195 145.67C6.62303 146.279 18.6412 136.77 20.5649 138.786C22.4887 140.802 16.3865 130.458 18.2171 124.981C20.0477 119.505 18.2171 66.5654 18.2171 66.5654Z" fill="#2F2E41"/>
<path d="M247.641 93.7268H231.869V97.513H247.641V93.7268Z" fill="#6C63FF"/>
<path d="M302.257 93.7268H296.708V97.513H302.257V93.7268Z" fill="#6C63FF"/>
<path d="M313.356 93.7268H307.807V97.513H313.356V93.7268Z" fill="#6C63FF"/>
<path d="M290.867 93.7268H253.19V97.513H290.867V93.7268Z" fill="#6C63FF"/>
<path d="M227.78 118.192H212.008V121.978H227.78V118.192Z" fill="#6C63FF"/>
<path d="M282.397 118.192H276.848V121.978H282.397V118.192Z" fill="#6C63FF"/>
<path d="M293.496 118.192H287.946V121.978H293.496V118.192Z" fill="#6C63FF"/>
<path d="M271.006 118.192H233.329V121.978H271.006V118.192Z" fill="#6C63FF"/>
<path d="M292.911 102.173H277.14V105.959H292.911V102.173Z" fill="#6C63FF"/>
<path d="M314.232 102.173H298.46V105.959H314.232V102.173Z" fill="#6C63FF"/>
<path d="M217.558 102.173H212.008V105.959H217.558V102.173Z" fill="#6C63FF"/>
<path d="M228.656 102.173H223.107V105.959H228.656V102.173Z" fill="#6C63FF"/>
<path d="M271.882 102.173H234.206V105.959H271.882V102.173Z" fill="#6C63FF"/>
<path d="M260.199 110.328H244.428V114.114H260.199V110.328Z" fill="#6C63FF"/>
<path d="M238.879 110.328H223.107V114.114H238.879V110.328Z" fill="#6C63FF"/>
<path d="M217.558 110.328H212.008V114.114H217.558V110.328Z" fill="#6C63FF"/>
<path d="M314.232 110.328H308.683V114.114H314.232V110.328Z" fill="#6C63FF"/>
<path d="M303.134 110.328H265.457V114.114H303.134V110.328Z" fill="#6C63FF"/>
</g>
<defs>
<clipPath id="clip0_21_437">
<rect width="377" height="354" fill="white" transform="translate(0 0.5)"/>
</clipPath>
</defs>
</svg>
