<svg width="149" height="51" viewBox="0 0 149 51" fill="none" xmlns="http://www.w3.org/2000/svg">
<path d="M0 24.7866C0 21.009 0.973647 18.1826 2.92094 16.3182C4.87361 14.4484 7.4718 13.5134 10.7155 13.5134C13.7225 13.5134 16.1163 14.2808 17.9022 15.8102C19.6881 17.3396 20.5811 19.377 20.5811 21.9223V22.4466H14.4648V21.8143C14.4648 20.4848 14.1475 19.5175 13.5181 18.9176C12.8887 18.3178 11.9258 18.0151 10.6348 18.0151C9.34378 18.0151 8.20876 18.442 7.42877 19.2959C6.64339 20.1498 6.25609 21.69 6.25609 23.9165V27.0833C6.25609 29.1531 6.63263 30.6555 7.38035 31.5958C8.13345 32.5362 9.25234 33.0063 10.7424 33.0063C11.9904 33.0063 12.921 32.6713 13.5235 32.0012C14.126 31.331 14.4379 30.3799 14.4595 29.1423V28.5749H20.5757V29.1423C20.5327 31.6445 19.6289 33.6602 17.8645 35.1896C16.1001 36.719 13.7117 37.4864 10.7101 37.4864C7.4449 37.4864 4.84134 36.5407 2.89942 34.6438C0.968268 32.7469 0 29.9368 0 26.2133V24.7866Z" fill="#6C63FF"/>
<path d="M22.6411 26.9024C22.6411 24.1895 23.4857 22.0764 25.1801 20.5686C26.8692 19.0609 29.0424 18.3043 31.689 18.3043C34.3356 18.3043 36.5089 19.0609 38.2033 20.5686C39.8978 22.0764 40.7477 24.1895 40.7477 26.9024V27.4103C40.7477 30.1124 39.8978 32.2201 38.2033 33.7332C36.5089 35.2464 34.3356 36.003 31.689 36.003C29.0424 36.003 26.8692 35.2464 25.1801 33.7332C23.4857 32.2201 22.6411 30.1124 22.6411 27.4103V26.9024ZM28.6282 27.8373C28.6282 29.2856 28.9026 30.2854 29.4566 30.8366C30.0107 31.3878 30.753 31.6688 31.689 31.6688C32.625 31.6688 33.3781 31.3932 33.9268 30.8366C34.4755 30.28 34.7445 29.2802 34.7445 27.8373V26.4592C34.7445 25.0217 34.4594 24.0327 33.8945 23.4815C33.3297 22.9303 32.5928 22.6601 31.689 22.6601C30.7853 22.6601 30.0484 22.9357 29.4835 23.4815C28.9187 24.0327 28.6336 25.0217 28.6336 26.4592V27.8373H28.6282ZM43.6364 18.7961H49.2792L49.3599 20.5038H49.4568C49.7634 19.9364 50.3336 19.45 51.1674 19.0447C52.0011 18.6448 52.921 18.4448 53.9162 18.4448C55.6483 18.4448 57.0845 18.9366 58.225 19.9147C59.3654 20.8983 59.9356 22.6871 59.9356 25.2811V35.5274H54.0883V25.0487C54.0883 24.2057 53.9108 23.622 53.5611 23.3086C53.2115 22.9897 52.7112 22.833 52.0711 22.833C51.5654 22.833 51.0652 22.9843 50.5756 23.2924C50.0807 23.6004 49.7203 24.0652 49.489 24.6866V35.5328H43.6418V18.7961H43.6364ZM63.4913 18.7961H69.1341L69.2148 20.5038H69.3116C69.6182 19.9364 70.1884 19.45 71.0222 19.0447C71.856 18.6448 72.7759 18.4448 73.771 18.4448C75.5032 18.4448 76.9394 18.9366 78.0798 19.9147C79.2202 20.8983 79.7904 22.6871 79.7904 25.2811V35.5274H73.9432V25.0487C73.9432 24.2057 73.7657 23.622 73.416 23.3086C73.0663 22.9897 72.5661 22.833 71.9259 22.833C71.4203 22.833 70.92 22.9843 70.4305 23.2924C69.9356 23.6004 69.5752 24.0652 69.3439 24.6866V35.5328H63.4966V18.7961H63.4913ZM82.5123 26.9024C82.5123 24.2759 83.3461 22.1845 85.0083 20.6335C86.6759 19.0825 88.7577 18.3043 91.259 18.3043C93.7604 18.3043 95.8045 19.0339 97.2946 20.4876C98.7846 21.9467 99.5323 23.9895 99.5323 26.6321V28.6263H86.6275V25.3189H93.7658V24.9568C93.7765 24.2165 93.5506 23.6004 93.0934 23.1032C92.6361 22.606 91.9906 22.3574 91.1622 22.3574C90.2477 22.3574 89.5377 22.6979 89.032 23.3734C88.5264 24.0489 88.2735 25.0811 88.2735 26.4754V27.8049C88.2735 29.1451 88.5479 30.1503 89.1019 30.8204C89.656 31.4905 90.436 31.8256 91.4419 31.8256C92.2219 31.8256 92.8997 31.6094 93.4807 31.1771C94.0616 30.7447 94.535 30.2584 94.89 29.7179L99.0966 32.3444C98.5694 33.4955 97.6335 34.3926 96.2779 35.0465C94.9223 35.695 93.3569 36.0192 91.5818 36.0192C88.8168 36.0192 86.6167 35.241 84.9707 33.6846C83.3246 32.1282 82.507 30.0368 82.507 27.4049V26.8969L82.5123 26.9024ZM101.264 26.9024C101.264 24.1895 102.093 22.0764 103.755 20.5686C105.417 19.0609 107.574 18.3043 110.232 18.3043C112.889 18.3043 114.734 18.915 116.079 20.1309C117.424 21.3523 118.171 22.8492 118.317 24.6326L118.365 25.0433H112.647V24.7569C112.647 24.0597 112.432 23.5139 112.001 23.1086C111.571 22.7087 110.963 22.5087 110.173 22.5087C109.237 22.5087 108.516 22.8384 108.015 23.4977C107.51 24.157 107.257 25.1406 107.257 26.4484V27.8265C107.257 29.1451 107.494 30.1395 107.972 30.8042C108.451 31.4689 109.177 31.804 110.156 31.804C111.135 31.804 111.765 31.5716 112.12 31.1068C112.469 30.6421 112.647 30.107 112.647 29.5072V29.2694H118.338V29.5396C118.338 31.3122 117.628 32.8307 116.208 34.1007C114.788 35.3707 112.798 36.003 110.237 36.003C107.677 36.003 105.433 35.2464 103.766 33.7387C102.098 32.2309 101.27 30.1178 101.27 27.4049V26.8969L101.264 26.9024ZM118.871 18.7961H129.619V23.0059H118.871V18.7961ZM121.012 20.8551L121.044 20.4119V14.9807H126.843V29.8314C126.843 30.6042 126.977 31.1176 127.246 31.3824C127.515 31.6472 127.86 31.7769 128.279 31.7769C128.478 31.7769 128.688 31.7499 128.903 31.6905C129.118 31.631 129.317 31.5662 129.495 31.4905V35.495C129.274 35.6193 128.935 35.7328 128.484 35.8355C128.032 35.9382 127.548 35.9868 127.031 35.9868C125.234 35.9868 123.782 35.5058 122.674 34.5385C121.566 33.5711 121.012 32.0579 121.012 29.9881V20.8551ZM130.893 26.9024C130.893 24.1895 131.738 22.0764 133.432 20.5686C135.122 19.0609 137.295 18.3043 139.941 18.3043C142.588 18.3043 144.761 19.0609 146.456 20.5686C148.15 22.0764 149 24.1895 149 26.9024V27.4103C149 30.1124 148.15 32.2201 146.456 33.7332C144.761 35.2464 142.588 36.003 139.941 36.003C137.295 36.003 135.122 35.2464 133.432 33.7332C131.738 32.2201 130.893 30.1124 130.893 27.4103V26.9024ZM136.886 27.8373C136.886 29.2856 137.16 30.2854 137.714 30.8366C138.268 31.3878 139.011 31.6688 139.947 31.6688C140.883 31.6688 141.636 31.3932 142.185 30.8366C142.733 30.28 143.002 29.2802 143.002 27.8373V26.4592C143.002 25.0217 142.717 24.0327 142.152 23.4815C141.587 22.9303 140.85 22.6601 139.947 22.6601C139.043 22.6601 138.306 22.9357 137.741 23.4815C137.176 24.0327 136.891 25.0217 136.891 26.4592V27.8373H136.886Z" fill="#282828"/>
</svg>
